# xmcd
#
# Track frame offsets: 
#        150
#        8179
#        18275
#        52820
#        68141
#        84057
#        95325
#        104792
#        119046
#        133566
#        137146
#        154529
#        170769
#        185710
#        201066
#        220630
#        234855
#        247888
#        266770
#        277803
#        294857
#        320271
#        330301
#
# Disc length: 4761 seconds
#
# Revision: 0
# Processed by: cddbd v1.4PL0 Copyright (c) Steve Scherf et al.
# Submitted via: ExactAudioCopy v0.90b3
#
DISCID=36129717
DTITLE=Various Artist - Best of Soundtracks
DYEAR=2002
DGENRE=Blues
TTITLE0=Interview (Quentin Tarantino) - Spoken Word
TTITLE1=Misir Low (Dick Dale and His Det Tones) - Pulp Fiction
TTITLE2=Waiting For Mirache (Leonard Cohen) - Natural Born Killers
TTITLE3=Stuck In The Middle With You (Stealers Wheel) - Reservior Dogs
TTITLE4=Fulish Heart (The Movercks) - From Dusk Till Down
TTITLE5=Gullwinkle Part (The Conturians) - Pulp Fiction
TTITLE6=Cancion Del Mariachi (Los Lobos with Antonio Banderas) - Despe
TTITLE6=rado
TTITLE7=You Belongtome (Bob Dylan) - Natural Born Killers
TTITLE8=You Never Can Tell (Chuck Berry) - Pulp Fiction
TTITLE9=Cumbia De Surf (Joseph Julian Gonzalez) - Curoleo
TTITLE10=Dark Night (The Blasters) - From Dusk Till Down
TTITLE11=El Talisman (Rosana) - Curoleo
TTITLE12=Surf Rider (The Livery Ones) - Pulp Fiction
TTITLE13=Monte Carlo Nights (Elliot Easton's Tiki Gods) - Jackie Braun
TTITLE14=El Punal Y Ei Carazon (Cafe Tacuda) - Curoleo
TTITLE15=Girl, You'll Be A Woman Soon (Urhe Overkill) - Pulp Fiction
TTITLE16=Hooken On A Felling (Blue Swede) - Reservior Dogs
TTITLE17=After Dark (Tito and Tarantula) - From Dusk Till Down
TTITLE18=Son Of A Preacher Man (Dusty Springfield) - Pulp Fiction
TTITLE19=The Future (Leonard Cohen) - Natural Born Killers
TTITLE20=Obsession Confession (Slash) - Curoleo
TTITLE21=Lonesome Town (Ricky Nelson) - Pulp Fiction
TTITLE22=Ancry Cockroaches (Tito and Tarantula) - From Dusk Till Down
EXTD=
EXTT0=
EXTT1=
EXTT2=
EXTT3=
EXTT4=
EXTT5=
EXTT6=
EXTT7=
EXTT8=
EXTT9=
EXTT10=
EXTT11=
EXTT12=
EXTT13=
EXTT14=
EXTT15=
EXTT16=
EXTT17=
EXTT18=
EXTT19=
EXTT20=
EXTT21=
EXTT22=
PLAYORDER=
